<svg xmlns="http://www.w3.org/2000/svg" width="540" height="960" viewBox="0 0 540 960" version="1.1"><path d="M 242.655 198.679 C 242.281 199.052, 238.494 199.688, 234.238 200.093 C 224.497 201.019, 212.701 202.725, 207.500 203.960 C 205.300 204.483, 202.150 205.201, 200.500 205.555 C 187.424 208.365, 168.443 214.955, 154 221.701 C 149.875 223.627, 144.700 225.923, 142.500 226.802 C 133.667 230.331, 114.342 242.466, 98.083 254.692 C 82.530 266.388, 64.043 283.998, 53.667 297 C 49.936 301.675, 46.342 306.175, 45.680 307 C 40.076 313.981, 33.871 322.487, 30.729 327.492 C 26.687 333.933, 14 358.651, 14 360.085 C 14 360.561, 12.666 363.862, 11.037 367.420 C 9.407 370.979, 6.663 378.078, 4.939 383.195 C 3.216 388.313, 1.389 393.400, 0.881 394.500 C -0.430 397.334, 0.360 551.044, 1.719 557.500 C 2.900 563.113, 7.359 576.853, 9.557 581.651 C 10.351 583.384, 11 585.120, 11 585.508 C 11 587.968, 23.496 611.054, 25.250 611.833 C 25.663 612.017, 26 612.586, 26 613.099 C 26 613.611, 27.653 616.611, 29.674 619.765 C 37.422 631.859, 38.510 633.515, 39.021 634 C 39.311 634.275, 41.081 637.425, 42.956 641 C 44.831 644.575, 48.258 649.525, 50.572 652 C 52.886 654.475, 56.066 658.074, 57.640 659.998 C 61.558 664.791, 63.754 666.923, 68.975 671.003 C 75.958 676.460, 80 680.376, 80 681.687 C 80 682.347, 74.600 688.412, 68 695.165 C 61.400 701.918, 56.007 707.906, 56.015 708.472 C 56.025 709.155, 56.277 709.146, 56.765 708.447 C 57.169 707.868, 59.300 706.070, 61.500 704.450 C 63.700 702.831, 66.625 700.341, 68 698.916 C 69.375 697.492, 73.425 694.790, 77 692.913 C 80.575 691.036, 83.725 689.223, 84 688.884 C 84.275 688.546, 86.331 687.341, 88.568 686.207 C 92.491 684.219, 100 676.928, 100 675.109 C 100 673.791, 109.954 664.011, 115.378 660 C 117.982 658.075, 121.100 655.600, 122.309 654.500 C 123.518 653.400, 126.980 650.477, 130.003 648.005 C 133.027 645.533, 138.534 640.470, 142.243 636.755 C 145.951 633.040, 149.551 629.986, 150.243 629.968 C 153.521 629.885, 158.355 622.715, 157.854 618.679 C 157.705 617.481, 158.324 615.375, 159.229 614 C 161.685 610.267, 164.986 595.848, 166.612 581.750 C 167.240 576.304, 167.421 576, 170.026 576 C 172.408 576, 172.871 575.502, 173.474 572.289 C 173.856 570.249, 173.658 564.961, 173.032 560.539 C 170.254 540.916, 169.826 538.222, 168.733 533.500 C 167.552 528.396, 160.286 512.770, 158.814 512.167 C 158.366 511.983, 158 511.380, 158 510.825 C 158 510.270, 157.085 508.620, 155.966 507.158 C 145.773 493.841, 144.047 491.254, 140.175 483.500 C 139.352 481.850, 136.511 476.871, 133.863 472.435 C 127.262 461.375, 124.417 453.268, 123.008 441.500 C 122.349 436, 121.117 428.575, 120.270 425 C 119.423 421.425, 118.412 413.541, 118.023 407.480 C 117.634 401.418, 116.766 395.432, 116.094 394.177 C 115.082 392.285, 115.197 391.176, 116.768 387.697 C 121.288 377.686, 122 375.829, 122 374.052 C 122 370.200, 128.417 359.836, 135.099 352.898 C 138.894 348.956, 142 344.859, 142 343.792 C 142 342.475, 142.561 341.969, 143.750 342.215 C 144.713 342.414, 145.437 343.347, 145.361 344.288 C 145.170 346.638, 148.159 346.463, 150.268 344 C 151.210 342.900, 152.885 342, 153.990 342 C 157.629 342, 156.087 340.087, 151.250 338.600 C 148.637 337.797, 146.725 337.074, 147 336.993 C 147.275 336.913, 148.374 336.684, 149.441 336.484 C 154.141 335.605, 156 334.895, 156 333.981 C 156 333.441, 154.762 332.982, 153.250 332.960 L 150.500 332.920 153.250 331.428 C 154.762 330.607, 156 329.494, 156 328.953 C 156 327.586, 162.152 323.976, 163.286 324.677 C 163.807 324.999, 163.942 324.392, 163.593 323.294 C 162.697 320.469, 174.585 309.014, 182.437 305.137 C 198.233 297.338, 201.983 296, 208.045 296 C 211.320 296, 214 295.605, 214 295.121 C 214 294.638, 215.463 293.626, 217.250 292.871 C 219.716 291.831, 225.134 291.572, 239.719 291.798 L 258.938 292.095 259.553 289.643 C 260.269 286.792, 265.701 285.234, 268.920 286.957 C 271.555 288.367, 275.328 288.272, 276.842 286.758 C 277.830 285.770, 278.245 285.779, 278.880 286.806 C 279.512 287.828, 279.942 287.775, 280.961 286.547 C 281.667 285.696, 281.865 285, 281.400 285 C 279.858 285, 284.455 282.309, 287.088 281.671 C 288.683 281.284, 290.410 281.598, 291.588 282.490 C 292.640 283.285, 294.865 283.951, 296.533 283.968 C 298.201 283.986, 302.641 285.633, 306.400 287.629 C 310.860 289.997, 314.844 291.349, 317.867 291.518 C 320.828 291.684, 325.568 293.259, 331 295.880 C 335.675 298.137, 340.035 299.987, 340.688 299.991 C 342.307 300.003, 353.026 305.946, 355.373 308.133 C 356.417 309.105, 358.522 310.175, 360.053 310.512 C 362.636 311.079, 363.761 311.810, 368.666 316.107 C 371.681 318.749, 374 321.932, 374 323.428 C 374 324.201, 374.563 325.062, 375.250 325.341 C 376.228 325.737, 376.209 326.052, 375.166 326.785 C 374.095 327.537, 374.169 327.851, 375.544 328.379 C 376.867 328.886, 377.130 329.814, 376.700 332.459 C 376.347 334.635, 376.574 336.032, 377.322 336.295 C 378.141 336.582, 377.991 337.287, 376.834 338.604 C 374.994 340.697, 375.352 345.783, 377.460 347.500 C 379.001 348.755, 380.084 357.821, 378.944 359.928 C 376.864 363.775, 373.706 374.792, 373.819 377.806 C 374.187 387.583, 378.506 402.280, 385.244 416.682 C 386.712 419.820, 385.671 433.948, 383.677 437.945 C 381.812 441.684, 381.510 446.124, 382.942 448.764 C 383.460 449.719, 385.322 453.538, 387.079 457.250 C 388.837 460.963, 390.663 464, 391.137 464 C 391.612 464, 392 464.426, 392 464.946 C 392 466.523, 398.605 477.276, 401.863 481.005 C 403.542 482.927, 406.042 486.797, 407.418 489.604 C 409.599 494.056, 409.784 495.200, 408.859 498.547 C 407.650 502.925, 403.013 507.732, 399.133 508.629 C 397.685 508.964, 395.488 509.870, 394.250 510.642 C 392.140 511.958, 392 512.726, 392 522.934 C 392 533.804, 391.995 533.826, 389 536.347 C 385.680 539.140, 385.234 541.119, 387.500 543 C 390.378 545.388, 388.534 554, 385.144 554 C 384.752 554, 383.614 555.384, 382.614 557.075 C 380.841 560.078, 380.851 560.316, 383.028 567.087 C 387.345 580.513, 383.659 586.985, 368.500 592.596 C 356.288 597.117, 344.818 599.501, 320.729 602.529 C 312.773 603.529, 311.788 605.535, 309.931 624.500 C 309.447 629.450, 308.763 634.962, 308.412 636.750 C 307.851 639.602, 308.035 640, 309.911 640 C 312.173 640, 340 666.680, 340 668.849 C 340 669.482, 339.073 670, 337.941 670 C 336.809 670, 336.160 670.450, 336.500 671 C 336.840 671.550, 338.216 672, 339.559 672 C 341.333 672, 342 672.546, 342 674 C 342 675.530, 342.667 676, 344.839 676 C 346.912 676, 347.993 676.688, 348.839 678.547 C 350.262 681.670, 350.370 688, 349 688 C 348.450 688, 348 688.565, 348 689.255 C 348 689.946, 346.278 692.339, 344.173 694.574 C 340.407 698.571, 334 707.305, 334 708.440 C 334 708.985, 338.573 715.739, 343.519 722.500 C 344.726 724.150, 347.240 728.791, 349.107 732.814 C 352.451 740.023, 352.546 740.119, 355.712 739.526 C 357.478 739.195, 361.429 737.816, 364.490 736.462 C 367.552 735.108, 370.563 734, 371.182 734 C 374.540 734, 408.963 716.254, 412 712.957 C 413.688 711.125, 424.333 703, 425.046 703 C 425.521 703, 426.942 701.968, 428.205 700.706 C 430.200 698.712, 438.021 692.963, 445.586 687.930 C 449.769 685.147, 457.378 678.623, 461.999 673.858 C 469.255 666.376, 478.884 655.615, 480.702 652.959 C 481.627 651.607, 482.635 650.275, 482.942 650 C 483.249 649.725, 484.605 647.925, 485.955 646 C 487.306 644.075, 488.776 642.050, 489.222 641.500 C 494.004 635.609, 508 615.558, 508 614.599 C 508 614.318, 509.254 611.931, 510.787 609.294 C 512.320 606.657, 514.852 601.575, 516.415 598 C 517.979 594.425, 520.050 589.700, 521.018 587.500 C 527.051 573.792, 532.948 556.246, 535.804 543.500 C 539.658 526.306, 539.454 526.498, 540.049 539.500 C 540.351 546.100, 540.592 515.950, 540.585 472.500 C 540.578 429.050, 540.331 401.375, 540.036 411 C 539.622 424.514, 539.309 427.475, 538.662 424 C 538.201 421.525, 536.708 415.225, 535.344 410 C 533.980 404.775, 532.469 398.700, 531.987 396.500 C 528.659 381.322, 513.076 346.868, 500.081 325.954 C 495.192 318.084, 491.588 312.575, 490.955 312 C 490.652 311.725, 489.322 309.925, 488 308 C 486.678 306.075, 485.343 304.275, 485.034 304 C 484.725 303.725, 482.472 301.025, 480.027 298 C 474.665 291.364, 452.229 268.864, 446.118 263.993 C 443.708 262.072, 440.783 259.590, 439.618 258.478 C 438.453 257.366, 435.925 255.363, 434 254.026 C 432.075 252.690, 430.275 251.345, 430 251.037 C 429.168 250.107, 414.610 240.375, 413 239.673 C 412.175 239.313, 408.575 237.231, 405 235.046 C 397.020 230.167, 377.929 220.649, 372.500 218.842 C 370.300 218.110, 368.275 217.275, 368 216.986 C 366.533 215.447, 350.150 210.252, 335 206.522 C 329.225 205.100, 322.925 203.521, 321 203.014 C 319.075 202.506, 313.675 201.599, 309 200.998 C 304.325 200.397, 297.748 199.476, 294.385 198.952 C 287.446 197.872, 243.693 197.640, 242.655 198.679 M 0.476 473.500 C 0.476 516.950, 0.599 534.579, 0.750 512.676 C 0.900 490.772, 0.900 455.222, 0.750 433.676 C 0.599 412.129, 0.476 430.050, 0.476 473.500 M 333 722.533 C 333 722.827, 334.231 725.414, 335.736 728.283 C 339.461 735.384, 340.081 737, 339.083 737 C 338.613 737, 336.326 733.850, 334 730 C 331.674 726.150, 329.425 723, 329.002 723 C 324.446 723, 334.204 744.993, 342.475 753.366 C 345.264 756.190, 348.779 760.614, 350.285 763.198 C 355.016 771.314, 355.121 769.462, 350.465 760.037 C 348.009 755.066, 346 750.356, 346 749.571 C 346 748.785, 345.432 747.548, 344.738 746.821 C 344.044 746.095, 342.898 744.195, 342.191 742.600 L 340.906 739.700 343.436 742.100 C 344.827 743.420, 345.986 744.950, 346.011 745.500 C 346.066 746.712, 354 755.767, 354 754.618 C 354 754.173, 353.212 752.612, 352.250 751.150 C 351.288 749.688, 350.050 747.717, 349.500 746.770 C 346.812 742.142, 333.697 722, 333.372 722 C 333.167 722, 333 722.240, 333 722.533" stroke="none" fill="#04b0ef" fill-rule="evenodd"/></svg>